<svg width="35" height="35" viewBox="0 0 35 35" fill="none" xmlns="http://www.w3.org/2000/svg">
<circle cx="17.5" cy="17.5" r="17.5" fill="#366933"/>
<path d="M5.58749 28.3376C4.71074 27.4239 4.71074 25.9426 5.58749 25.029L11.4636 18.9057L13.3946 20.918C14.0816 21.6339 14.0816 22.7946 13.3946 23.5105L8.76247 28.3376C7.88573 29.2512 6.46424 29.2512 5.58749 28.3376Z" fill="black"/>
<path d="M24.504 5.51117L24.6763 7.27791L23.9174 9.82034L22.0995 12.6878L20.0015 15.2633L14.0783 21.6303L11.4636 18.9056L24.504 5.51117Z" fill="#D9D9D9"/>
<ellipse cx="0.549971" cy="0.674344" rx="0.549971" ry="0.674344" transform="matrix(0.69239 -0.721523 0.69239 0.721523 10.0438 21.553)" fill="#D9D9D9"/>
<ellipse cx="0.549971" cy="0.674344" rx="0.549971" ry="0.674344" transform="matrix(0.69239 -0.721523 0.69239 0.721523 8.36823 23.299)" fill="#D9D9D9"/>
<ellipse cx="0.549971" cy="0.674344" rx="0.549971" ry="0.674344" transform="matrix(0.69239 -0.721523 0.69239 0.721523 6.69275 25.045)" fill="#D9D9D9"/>
<path d="M29.4521 28.5948C28.7601 29.3159 27.6382 29.3159 26.9462 28.5948L21.8733 23.3085L24.3793 20.6971L29.4521 25.9834C30.1441 26.7045 30.1441 27.8737 29.4521 28.5948Z" fill="black"/>
<rect width="0.748869" height="4.47089" transform="matrix(-0.69239 -0.721523 0.69239 -0.721523 21.5786 23.6158)" fill="black"/>
<path d="M22.0919 22.0002L7.32453 6.61144C7.08029 6.35693 7.08029 5.94428 7.32453 5.68977C7.56876 5.43525 7.96475 5.43526 8.20898 5.68977L22.9764 21.0785L22.0919 22.0002Z" fill="#ACACAC"/>
</svg>
